<mxfile host="app.diagrams.net" modified="2024-04-22T08:42:53.715Z" agent="Mozilla/5.0 (Windows NT 10.0; Win64; x64) AppleWebKit/537.36 (KHTML, like Gecko) Chrome/123.0.0.0 Safari/537.36" etag="iDaW99hu2Es5b9-w9ys9" version="24.2.7" type="github">
  <diagram name="Trang-1" id="YBDbR_vrU3Q3pb-mnRNk">
    <mxGraphModel dx="1593" dy="820" grid="1" gridSize="10" guides="1" tooltips="1" connect="1" arrows="1" fold="1" page="1" pageScale="1" pageWidth="827" pageHeight="1169" math="0" shadow="0">
      <root>
        <mxCell id="0" />
        <mxCell id="1" parent="0" />
        <mxCell id="nQlicbacur5IE9ucQl_i-17" value="" style="shape=table;startSize=0;container=1;collapsible=0;childLayout=tableLayout;" parent="1" vertex="1">
          <mxGeometry x="480" y="730" width="240" height="40" as="geometry" />
        </mxCell>
        <mxCell id="nQlicbacur5IE9ucQl_i-18" value="" style="shape=tableRow;horizontal=0;startSize=0;swimlaneHead=0;swimlaneBody=0;strokeColor=inherit;top=0;left=0;bottom=0;right=0;collapsible=0;dropTarget=0;fillColor=none;points=[[0,0.5],[1,0.5]];portConstraint=eastwest;" parent="nQlicbacur5IE9ucQl_i-17" vertex="1">
          <mxGeometry width="240" height="40" as="geometry" />
        </mxCell>
        <mxCell id="nQlicbacur5IE9ucQl_i-19" value="&lt;u&gt;ID&lt;/u&gt;" style="shape=partialRectangle;html=1;whiteSpace=wrap;connectable=0;strokeColor=inherit;overflow=hidden;fillColor=none;top=0;left=0;bottom=0;right=0;pointerEvents=1;" parent="nQlicbacur5IE9ucQl_i-18" vertex="1">
          <mxGeometry width="50" height="40" as="geometry">
            <mxRectangle width="50" height="40" as="alternateBounds" />
          </mxGeometry>
        </mxCell>
        <mxCell id="nQlicbacur5IE9ucQl_i-20" value="address" style="shape=partialRectangle;html=1;whiteSpace=wrap;connectable=0;strokeColor=inherit;overflow=hidden;fillColor=none;top=0;left=0;bottom=0;right=0;pointerEvents=1;" parent="nQlicbacur5IE9ucQl_i-18" vertex="1">
          <mxGeometry x="50" width="70" height="40" as="geometry">
            <mxRectangle width="70" height="40" as="alternateBounds" />
          </mxGeometry>
        </mxCell>
        <mxCell id="nQlicbacur5IE9ucQl_i-21" value="phoneNumber" style="shape=partialRectangle;html=1;whiteSpace=wrap;connectable=0;strokeColor=inherit;overflow=hidden;fillColor=none;top=0;left=0;bottom=0;right=0;pointerEvents=1;" parent="nQlicbacur5IE9ucQl_i-18" vertex="1">
          <mxGeometry x="120" width="120" height="40" as="geometry">
            <mxRectangle width="120" height="40" as="alternateBounds" />
          </mxGeometry>
        </mxCell>
        <mxCell id="nQlicbacur5IE9ucQl_i-22" value="" style="shape=table;startSize=0;container=1;collapsible=0;childLayout=tableLayout;" parent="1" vertex="1">
          <mxGeometry x="56" y="830" width="460" height="40" as="geometry" />
        </mxCell>
        <mxCell id="nQlicbacur5IE9ucQl_i-23" value="" style="shape=tableRow;horizontal=0;startSize=0;swimlaneHead=0;swimlaneBody=0;strokeColor=inherit;top=0;left=0;bottom=0;right=0;collapsible=0;dropTarget=0;fillColor=none;points=[[0,0.5],[1,0.5]];portConstraint=eastwest;" parent="nQlicbacur5IE9ucQl_i-22" vertex="1">
          <mxGeometry width="460" height="40" as="geometry" />
        </mxCell>
        <mxCell id="nQlicbacur5IE9ucQl_i-24" value="&lt;u&gt;ID&lt;/u&gt;" style="shape=partialRectangle;html=1;whiteSpace=wrap;connectable=0;strokeColor=inherit;overflow=hidden;fillColor=none;top=0;left=0;bottom=0;right=0;pointerEvents=1;" parent="nQlicbacur5IE9ucQl_i-23" vertex="1">
          <mxGeometry width="50" height="40" as="geometry">
            <mxRectangle width="50" height="40" as="alternateBounds" />
          </mxGeometry>
        </mxCell>
        <mxCell id="nQlicbacur5IE9ucQl_i-25" value="salary" style="shape=partialRectangle;html=1;whiteSpace=wrap;connectable=0;strokeColor=inherit;overflow=hidden;fillColor=none;top=0;left=0;bottom=0;right=0;pointerEvents=1;" parent="nQlicbacur5IE9ucQl_i-23" vertex="1">
          <mxGeometry x="50" width="81" height="40" as="geometry">
            <mxRectangle width="81" height="40" as="alternateBounds" />
          </mxGeometry>
        </mxCell>
        <mxCell id="nQlicbacur5IE9ucQl_i-26" value="fullName" style="shape=partialRectangle;html=1;whiteSpace=wrap;connectable=0;strokeColor=inherit;overflow=hidden;fillColor=none;top=0;left=0;bottom=0;right=0;pointerEvents=1;" parent="nQlicbacur5IE9ucQl_i-23" vertex="1">
          <mxGeometry x="131" width="66" height="40" as="geometry">
            <mxRectangle width="66" height="40" as="alternateBounds" />
          </mxGeometry>
        </mxCell>
        <mxCell id="nQlicbacur5IE9ucQl_i-27" value="role" style="shape=partialRectangle;html=1;whiteSpace=wrap;connectable=0;strokeColor=inherit;overflow=hidden;fillColor=none;top=0;left=0;bottom=0;right=0;pointerEvents=1;" parent="nQlicbacur5IE9ucQl_i-23" vertex="1">
          <mxGeometry x="197" width="66" height="40" as="geometry">
            <mxRectangle width="66" height="40" as="alternateBounds" />
          </mxGeometry>
        </mxCell>
        <mxCell id="nQlicbacur5IE9ucQl_i-28" value="phoneNumber" style="shape=partialRectangle;html=1;whiteSpace=wrap;connectable=0;strokeColor=inherit;overflow=hidden;fillColor=none;top=0;left=0;bottom=0;right=0;pointerEvents=1;" parent="nQlicbacur5IE9ucQl_i-23" vertex="1">
          <mxGeometry x="263" width="98" height="40" as="geometry">
            <mxRectangle width="98" height="40" as="alternateBounds" />
          </mxGeometry>
        </mxCell>
        <mxCell id="nQlicbacur5IE9ucQl_i-29" value="&lt;u&gt;idBranch(FK)&lt;/u&gt;" style="shape=partialRectangle;html=1;whiteSpace=wrap;connectable=0;strokeColor=inherit;overflow=hidden;fillColor=none;top=0;left=0;bottom=0;right=0;pointerEvents=1;" parent="nQlicbacur5IE9ucQl_i-23" vertex="1">
          <mxGeometry x="361" width="99" height="40" as="geometry">
            <mxRectangle width="99" height="40" as="alternateBounds" />
          </mxGeometry>
        </mxCell>
        <mxCell id="nQlicbacur5IE9ucQl_i-30" value="" style="shape=table;startSize=0;container=1;collapsible=0;childLayout=tableLayout;" parent="1" vertex="1">
          <mxGeometry x="572" y="900" width="436" height="40" as="geometry" />
        </mxCell>
        <mxCell id="nQlicbacur5IE9ucQl_i-31" value="" style="shape=tableRow;horizontal=0;startSize=0;swimlaneHead=0;swimlaneBody=0;strokeColor=inherit;top=0;left=0;bottom=0;right=0;collapsible=0;dropTarget=0;fillColor=none;points=[[0,0.5],[1,0.5]];portConstraint=eastwest;" parent="nQlicbacur5IE9ucQl_i-30" vertex="1">
          <mxGeometry width="436" height="40" as="geometry" />
        </mxCell>
        <mxCell id="nQlicbacur5IE9ucQl_i-32" value="&lt;u&gt;ID&lt;/u&gt;" style="shape=partialRectangle;html=1;whiteSpace=wrap;connectable=0;strokeColor=inherit;overflow=hidden;fillColor=none;top=0;left=0;bottom=0;right=0;pointerEvents=1;" parent="nQlicbacur5IE9ucQl_i-31" vertex="1">
          <mxGeometry width="50" height="40" as="geometry">
            <mxRectangle width="50" height="40" as="alternateBounds" />
          </mxGeometry>
        </mxCell>
        <mxCell id="nQlicbacur5IE9ucQl_i-33" value="name" style="shape=partialRectangle;html=1;whiteSpace=wrap;connectable=0;strokeColor=inherit;overflow=hidden;fillColor=none;top=0;left=0;bottom=0;right=0;pointerEvents=1;" parent="nQlicbacur5IE9ucQl_i-31" vertex="1">
          <mxGeometry x="50" width="70" height="40" as="geometry">
            <mxRectangle width="70" height="40" as="alternateBounds" />
          </mxGeometry>
        </mxCell>
        <mxCell id="nQlicbacur5IE9ucQl_i-34" value="username" style="shape=partialRectangle;html=1;whiteSpace=wrap;connectable=0;strokeColor=inherit;overflow=hidden;fillColor=none;top=0;left=0;bottom=0;right=0;pointerEvents=1;" parent="nQlicbacur5IE9ucQl_i-31" vertex="1">
          <mxGeometry x="120" width="60" height="40" as="geometry">
            <mxRectangle width="60" height="40" as="alternateBounds" />
          </mxGeometry>
        </mxCell>
        <mxCell id="nQlicbacur5IE9ucQl_i-35" value="password" style="shape=partialRectangle;html=1;whiteSpace=wrap;connectable=0;strokeColor=inherit;overflow=hidden;fillColor=none;top=0;left=0;bottom=0;right=0;pointerEvents=1;" parent="nQlicbacur5IE9ucQl_i-31" vertex="1">
          <mxGeometry x="180" width="76" height="40" as="geometry">
            <mxRectangle width="76" height="40" as="alternateBounds" />
          </mxGeometry>
        </mxCell>
        <mxCell id="nQlicbacur5IE9ucQl_i-36" value="phoneNumber" style="shape=partialRectangle;html=1;whiteSpace=wrap;connectable=0;strokeColor=inherit;overflow=hidden;fillColor=none;top=0;left=0;bottom=0;right=0;pointerEvents=1;" parent="nQlicbacur5IE9ucQl_i-31" vertex="1">
          <mxGeometry x="256" width="100" height="40" as="geometry">
            <mxRectangle width="100" height="40" as="alternateBounds" />
          </mxGeometry>
        </mxCell>
        <mxCell id="nQlicbacur5IE9ucQl_i-37" value="address" style="shape=partialRectangle;html=1;whiteSpace=wrap;connectable=0;strokeColor=inherit;overflow=hidden;fillColor=none;top=0;left=0;bottom=0;right=0;pointerEvents=1;" parent="nQlicbacur5IE9ucQl_i-31" vertex="1">
          <mxGeometry x="356" width="80" height="40" as="geometry">
            <mxRectangle width="80" height="40" as="alternateBounds" />
          </mxGeometry>
        </mxCell>
        <mxCell id="nQlicbacur5IE9ucQl_i-38" value="" style="shape=table;startSize=0;container=1;collapsible=0;childLayout=tableLayout;" parent="1" vertex="1">
          <mxGeometry x="56" y="1000" width="650" height="40" as="geometry" />
        </mxCell>
        <mxCell id="nQlicbacur5IE9ucQl_i-39" value="" style="shape=tableRow;horizontal=0;startSize=0;swimlaneHead=0;swimlaneBody=0;strokeColor=inherit;top=0;left=0;bottom=0;right=0;collapsible=0;dropTarget=0;fillColor=none;points=[[0,0.5],[1,0.5]];portConstraint=eastwest;" parent="nQlicbacur5IE9ucQl_i-38" vertex="1">
          <mxGeometry width="650" height="40" as="geometry" />
        </mxCell>
        <mxCell id="nQlicbacur5IE9ucQl_i-40" value="&lt;u&gt;ID&lt;/u&gt;" style="shape=partialRectangle;html=1;whiteSpace=wrap;connectable=0;strokeColor=inherit;overflow=hidden;fillColor=none;top=0;left=0;bottom=0;right=0;pointerEvents=1;" parent="nQlicbacur5IE9ucQl_i-39" vertex="1">
          <mxGeometry width="50" height="40" as="geometry">
            <mxRectangle width="50" height="40" as="alternateBounds" />
          </mxGeometry>
        </mxCell>
        <mxCell id="nQlicbacur5IE9ucQl_i-41" value="ticketPrice" style="shape=partialRectangle;html=1;whiteSpace=wrap;connectable=0;strokeColor=inherit;overflow=hidden;fillColor=none;top=0;left=0;bottom=0;right=0;pointerEvents=1;" parent="nQlicbacur5IE9ucQl_i-39" vertex="1">
          <mxGeometry x="50" width="110" height="40" as="geometry">
            <mxRectangle width="110" height="40" as="alternateBounds" />
          </mxGeometry>
        </mxCell>
        <mxCell id="nQlicbacur5IE9ucQl_i-42" value="discount" style="shape=partialRectangle;html=1;whiteSpace=wrap;connectable=0;strokeColor=inherit;overflow=hidden;fillColor=none;top=0;left=0;bottom=0;right=0;pointerEvents=1;" parent="nQlicbacur5IE9ucQl_i-39" vertex="1">
          <mxGeometry x="160" width="90" height="40" as="geometry">
            <mxRectangle width="90" height="40" as="alternateBounds" />
          </mxGeometry>
        </mxCell>
        <mxCell id="nQlicbacur5IE9ucQl_i-43" value="idTrainRide(FK)" style="shape=partialRectangle;html=1;whiteSpace=wrap;connectable=0;strokeColor=inherit;overflow=hidden;fillColor=none;top=0;left=0;bottom=0;right=0;pointerEvents=1;" parent="nQlicbacur5IE9ucQl_i-39" vertex="1">
          <mxGeometry x="250" width="94" height="40" as="geometry">
            <mxRectangle width="94" height="40" as="alternateBounds" />
          </mxGeometry>
        </mxCell>
        <mxCell id="nQlicbacur5IE9ucQl_i-44" value="idEmployee(FK)" style="shape=partialRectangle;html=1;whiteSpace=wrap;connectable=0;strokeColor=inherit;overflow=hidden;fillColor=none;top=0;left=0;bottom=0;right=0;pointerEvents=1;" parent="nQlicbacur5IE9ucQl_i-39" vertex="1">
          <mxGeometry x="344" width="100" height="40" as="geometry">
            <mxRectangle width="100" height="40" as="alternateBounds" />
          </mxGeometry>
        </mxCell>
        <mxCell id="nQlicbacur5IE9ucQl_i-45" value="idCustomer(FK)" style="shape=partialRectangle;html=1;whiteSpace=wrap;connectable=0;strokeColor=inherit;overflow=hidden;fillColor=none;top=0;left=0;bottom=0;right=0;pointerEvents=1;" parent="nQlicbacur5IE9ucQl_i-39" vertex="1">
          <mxGeometry x="444" width="96" height="40" as="geometry">
            <mxRectangle width="96" height="40" as="alternateBounds" />
          </mxGeometry>
        </mxCell>
        <mxCell id="nQlicbacur5IE9ucQl_i-81" value="seatType" style="shape=partialRectangle;html=1;whiteSpace=wrap;connectable=0;strokeColor=inherit;overflow=hidden;fillColor=none;top=0;left=0;bottom=0;right=0;pointerEvents=1;" parent="nQlicbacur5IE9ucQl_i-39" vertex="1">
          <mxGeometry x="540" width="110" height="40" as="geometry">
            <mxRectangle width="110" height="40" as="alternateBounds" />
          </mxGeometry>
        </mxCell>
        <mxCell id="nQlicbacur5IE9ucQl_i-54" value="" style="shape=table;startSize=0;container=1;collapsible=0;childLayout=tableLayout;" parent="1" vertex="1">
          <mxGeometry x="56" y="1150" width="654" height="40" as="geometry" />
        </mxCell>
        <mxCell id="nQlicbacur5IE9ucQl_i-55" value="" style="shape=tableRow;horizontal=0;startSize=0;swimlaneHead=0;swimlaneBody=0;strokeColor=inherit;top=0;left=0;bottom=0;right=0;collapsible=0;dropTarget=0;fillColor=none;points=[[0,0.5],[1,0.5]];portConstraint=eastwest;" parent="nQlicbacur5IE9ucQl_i-54" vertex="1">
          <mxGeometry width="654" height="40" as="geometry" />
        </mxCell>
        <mxCell id="nQlicbacur5IE9ucQl_i-56" value="&lt;u&gt;ID&lt;/u&gt;" style="shape=partialRectangle;html=1;whiteSpace=wrap;connectable=0;strokeColor=inherit;overflow=hidden;fillColor=none;top=0;left=0;bottom=0;right=0;pointerEvents=1;" parent="nQlicbacur5IE9ucQl_i-55" vertex="1">
          <mxGeometry width="50" height="40" as="geometry">
            <mxRectangle width="50" height="40" as="alternateBounds" />
          </mxGeometry>
        </mxCell>
        <mxCell id="nQlicbacur5IE9ucQl_i-57" value="departureTime" style="shape=partialRectangle;html=1;whiteSpace=wrap;connectable=0;strokeColor=inherit;overflow=hidden;fillColor=none;top=0;left=0;bottom=0;right=0;pointerEvents=1;" parent="nQlicbacur5IE9ucQl_i-55" vertex="1">
          <mxGeometry x="50" width="110" height="40" as="geometry">
            <mxRectangle width="110" height="40" as="alternateBounds" />
          </mxGeometry>
        </mxCell>
        <mxCell id="nQlicbacur5IE9ucQl_i-86" value="arrivalTime" style="shape=partialRectangle;html=1;whiteSpace=wrap;connectable=0;strokeColor=inherit;overflow=hidden;fillColor=none;top=0;left=0;bottom=0;right=0;pointerEvents=1;" parent="nQlicbacur5IE9ucQl_i-55" vertex="1">
          <mxGeometry x="160" width="110" height="40" as="geometry">
            <mxRectangle width="110" height="40" as="alternateBounds" />
          </mxGeometry>
        </mxCell>
        <mxCell id="nQlicbacur5IE9ucQl_i-58" value="idDepartureStation(FK)" style="shape=partialRectangle;html=1;whiteSpace=wrap;connectable=0;strokeColor=inherit;overflow=hidden;fillColor=none;top=0;left=0;bottom=0;right=0;pointerEvents=1;" parent="nQlicbacur5IE9ucQl_i-55" vertex="1">
          <mxGeometry x="270" width="140" height="40" as="geometry">
            <mxRectangle width="140" height="40" as="alternateBounds" />
          </mxGeometry>
        </mxCell>
        <mxCell id="nQlicbacur5IE9ucQl_i-59" value="idDestinationStation(FK)" style="shape=partialRectangle;html=1;whiteSpace=wrap;connectable=0;strokeColor=inherit;overflow=hidden;fillColor=none;top=0;left=0;bottom=0;right=0;pointerEvents=1;" parent="nQlicbacur5IE9ucQl_i-55" vertex="1">
          <mxGeometry x="410" width="134" height="40" as="geometry">
            <mxRectangle width="134" height="40" as="alternateBounds" />
          </mxGeometry>
        </mxCell>
        <mxCell id="nQlicbacur5IE9ucQl_i-60" value="idTrain(FK)" style="shape=partialRectangle;html=1;whiteSpace=wrap;connectable=0;strokeColor=inherit;overflow=hidden;fillColor=none;top=0;left=0;bottom=0;right=0;pointerEvents=1;" parent="nQlicbacur5IE9ucQl_i-55" vertex="1">
          <mxGeometry x="544" width="110" height="40" as="geometry">
            <mxRectangle width="110" height="40" as="alternateBounds" />
          </mxGeometry>
        </mxCell>
        <mxCell id="nQlicbacur5IE9ucQl_i-66" value="" style="shape=table;startSize=0;container=1;collapsible=0;childLayout=tableLayout;" parent="1" vertex="1">
          <mxGeometry x="160" y="1280" width="240" height="40" as="geometry" />
        </mxCell>
        <mxCell id="nQlicbacur5IE9ucQl_i-67" value="" style="shape=tableRow;horizontal=0;startSize=0;swimlaneHead=0;swimlaneBody=0;strokeColor=inherit;top=0;left=0;bottom=0;right=0;collapsible=0;dropTarget=0;fillColor=none;points=[[0,0.5],[1,0.5]];portConstraint=eastwest;" parent="nQlicbacur5IE9ucQl_i-66" vertex="1">
          <mxGeometry width="240" height="40" as="geometry" />
        </mxCell>
        <mxCell id="nQlicbacur5IE9ucQl_i-68" value="&lt;u&gt;ID&lt;/u&gt;" style="shape=partialRectangle;html=1;whiteSpace=wrap;connectable=0;strokeColor=inherit;overflow=hidden;fillColor=none;top=0;left=0;bottom=0;right=0;pointerEvents=1;" parent="nQlicbacur5IE9ucQl_i-67" vertex="1">
          <mxGeometry width="50" height="40" as="geometry">
            <mxRectangle width="50" height="40" as="alternateBounds" />
          </mxGeometry>
        </mxCell>
        <mxCell id="nQlicbacur5IE9ucQl_i-69" value="name" style="shape=partialRectangle;html=1;whiteSpace=wrap;connectable=0;strokeColor=inherit;overflow=hidden;fillColor=none;top=0;left=0;bottom=0;right=0;pointerEvents=1;" parent="nQlicbacur5IE9ucQl_i-67" vertex="1">
          <mxGeometry x="50" width="70" height="40" as="geometry">
            <mxRectangle width="70" height="40" as="alternateBounds" />
          </mxGeometry>
        </mxCell>
        <mxCell id="nQlicbacur5IE9ucQl_i-70" value="type" style="shape=partialRectangle;html=1;whiteSpace=wrap;connectable=0;strokeColor=inherit;overflow=hidden;fillColor=none;top=0;left=0;bottom=0;right=0;pointerEvents=1;" parent="nQlicbacur5IE9ucQl_i-67" vertex="1">
          <mxGeometry x="120" width="60" height="40" as="geometry">
            <mxRectangle width="60" height="40" as="alternateBounds" />
          </mxGeometry>
        </mxCell>
        <mxCell id="nQlicbacur5IE9ucQl_i-71" value="address" style="shape=partialRectangle;html=1;whiteSpace=wrap;connectable=0;strokeColor=inherit;overflow=hidden;fillColor=none;top=0;left=0;bottom=0;right=0;pointerEvents=1;" parent="nQlicbacur5IE9ucQl_i-67" vertex="1">
          <mxGeometry x="180" width="60" height="40" as="geometry">
            <mxRectangle width="60" height="40" as="alternateBounds" />
          </mxGeometry>
        </mxCell>
        <mxCell id="nQlicbacur5IE9ucQl_i-72" value="" style="shape=table;startSize=0;container=1;collapsible=0;childLayout=tableLayout;" parent="1" vertex="1">
          <mxGeometry x="619" y="1316" width="320" height="40" as="geometry" />
        </mxCell>
        <mxCell id="nQlicbacur5IE9ucQl_i-73" value="" style="shape=tableRow;horizontal=0;startSize=0;swimlaneHead=0;swimlaneBody=0;strokeColor=inherit;top=0;left=0;bottom=0;right=0;collapsible=0;dropTarget=0;fillColor=none;points=[[0,0.5],[1,0.5]];portConstraint=eastwest;" parent="nQlicbacur5IE9ucQl_i-72" vertex="1">
          <mxGeometry width="320" height="40" as="geometry" />
        </mxCell>
        <mxCell id="nQlicbacur5IE9ucQl_i-74" value="&lt;u&gt;ID&lt;/u&gt;" style="shape=partialRectangle;html=1;whiteSpace=wrap;connectable=0;strokeColor=inherit;overflow=hidden;fillColor=none;top=0;left=0;bottom=0;right=0;pointerEvents=1;" parent="nQlicbacur5IE9ucQl_i-73" vertex="1">
          <mxGeometry width="50" height="40" as="geometry">
            <mxRectangle width="50" height="40" as="alternateBounds" />
          </mxGeometry>
        </mxCell>
        <mxCell id="nQlicbacur5IE9ucQl_i-75" value="manufacturer" style="shape=partialRectangle;html=1;whiteSpace=wrap;connectable=0;strokeColor=inherit;overflow=hidden;fillColor=none;top=0;left=0;bottom=0;right=0;pointerEvents=1;" parent="nQlicbacur5IE9ucQl_i-73" vertex="1">
          <mxGeometry x="50" width="90" height="40" as="geometry">
            <mxRectangle width="90" height="40" as="alternateBounds" />
          </mxGeometry>
        </mxCell>
        <mxCell id="nQlicbacur5IE9ucQl_i-76" value="class1_seats" style="shape=partialRectangle;html=1;whiteSpace=wrap;connectable=0;strokeColor=inherit;overflow=hidden;fillColor=none;top=0;left=0;bottom=0;right=0;pointerEvents=1;" parent="nQlicbacur5IE9ucQl_i-73" vertex="1">
          <mxGeometry x="140" width="100" height="40" as="geometry">
            <mxRectangle width="100" height="40" as="alternateBounds" />
          </mxGeometry>
        </mxCell>
        <mxCell id="nQlicbacur5IE9ucQl_i-77" value="class2_seats" style="shape=partialRectangle;html=1;whiteSpace=wrap;connectable=0;strokeColor=inherit;overflow=hidden;fillColor=none;top=0;left=0;bottom=0;right=0;pointerEvents=1;" parent="nQlicbacur5IE9ucQl_i-73" vertex="1">
          <mxGeometry x="240" width="80" height="40" as="geometry">
            <mxRectangle width="80" height="40" as="alternateBounds" />
          </mxGeometry>
        </mxCell>
        <mxCell id="nQlicbacur5IE9ucQl_i-89" value="&lt;b&gt;Train&lt;/b&gt;" style="text;html=1;align=center;verticalAlign=middle;resizable=0;points=[];autosize=1;strokeColor=none;fillColor=none;" parent="1" vertex="1">
          <mxGeometry x="650" y="1286" width="50" height="30" as="geometry" />
        </mxCell>
        <mxCell id="nQlicbacur5IE9ucQl_i-90" value="&lt;b&gt;Station&lt;/b&gt;" style="text;html=1;align=center;verticalAlign=middle;resizable=0;points=[];autosize=1;strokeColor=none;fillColor=none;" parent="1" vertex="1">
          <mxGeometry x="140" y="1250" width="60" height="30" as="geometry" />
        </mxCell>
        <mxCell id="nQlicbacur5IE9ucQl_i-91" value="&lt;b&gt;Employee&lt;/b&gt;" style="text;html=1;align=center;verticalAlign=middle;resizable=0;points=[];autosize=1;strokeColor=none;fillColor=none;" parent="1" vertex="1">
          <mxGeometry x="40" y="780" width="80" height="30" as="geometry" />
        </mxCell>
        <mxCell id="nQlicbacur5IE9ucQl_i-92" value="&lt;b&gt;Branch&lt;/b&gt;" style="text;html=1;align=center;verticalAlign=middle;resizable=0;points=[];autosize=1;strokeColor=none;fillColor=none;" parent="1" vertex="1">
          <mxGeometry x="480" y="700" width="60" height="30" as="geometry" />
        </mxCell>
        <mxCell id="nQlicbacur5IE9ucQl_i-94" value="&lt;b&gt;Customer&lt;/b&gt;" style="text;html=1;align=center;verticalAlign=middle;resizable=0;points=[];autosize=1;strokeColor=none;fillColor=none;" parent="1" vertex="1">
          <mxGeometry x="570" y="870" width="80" height="30" as="geometry" />
        </mxCell>
        <mxCell id="nQlicbacur5IE9ucQl_i-96" value="&lt;b&gt;Ticket&lt;/b&gt;" style="text;html=1;align=center;verticalAlign=middle;resizable=0;points=[];autosize=1;strokeColor=none;fillColor=none;" parent="1" vertex="1">
          <mxGeometry x="56" y="970" width="60" height="30" as="geometry" />
        </mxCell>
        <mxCell id="nQlicbacur5IE9ucQl_i-97" value="&lt;b&gt;TrainRide&lt;/b&gt;" style="text;html=1;align=center;verticalAlign=middle;resizable=0;points=[];autosize=1;strokeColor=none;fillColor=none;" parent="1" vertex="1">
          <mxGeometry x="20" y="1120" width="80" height="30" as="geometry" />
        </mxCell>
        <mxCell id="m6Z-nKXAtuWhH_7q1srU-1" value="" style="endArrow=block;html=1;rounded=0;endSize=8;startSize=5;targetPerimeterSpacing=6;strokeWidth=3;endFill=1;fillColor=#d5e8d4;strokeColor=#82b366;exitX=0.121;exitY=1.025;exitDx=0;exitDy=0;exitPerimeter=0;entryX=0.987;entryY=-0.025;entryDx=0;entryDy=0;entryPerimeter=0;" edge="1" parent="1" target="nQlicbacur5IE9ucQl_i-23">
          <mxGeometry width="50" height="50" relative="1" as="geometry">
            <mxPoint x="510.03999999999996" y="771" as="sourcePoint" />
            <mxPoint x="507.79999999999995" y="827" as="targetPoint" />
          </mxGeometry>
        </mxCell>
        <mxCell id="m6Z-nKXAtuWhH_7q1srU-2" value="" style="endArrow=block;html=1;rounded=0;endSize=8;startSize=5;targetPerimeterSpacing=6;strokeWidth=3;endFill=1;fillColor=#d5e8d4;strokeColor=#82b366;exitX=0.061;exitY=1.025;exitDx=0;exitDy=0;exitPerimeter=0;" edge="1" parent="1" source="nQlicbacur5IE9ucQl_i-23">
          <mxGeometry width="50" height="50" relative="1" as="geometry">
            <mxPoint x="310.03999999999996" y="882" as="sourcePoint" />
            <mxPoint x="439" y="997" as="targetPoint" />
            <Array as="points">
              <mxPoint x="84" y="920" />
              <mxPoint x="440" y="920" />
            </Array>
          </mxGeometry>
        </mxCell>
        <mxCell id="m6Z-nKXAtuWhH_7q1srU-3" value="" style="endArrow=block;html=1;rounded=0;endSize=8;startSize=5;targetPerimeterSpacing=6;strokeWidth=3;endFill=1;fillColor=#d5e8d4;strokeColor=#82b366;entryX=0.987;entryY=-0.025;entryDx=0;entryDy=0;entryPerimeter=0;exitX=0;exitY=0.5;exitDx=0;exitDy=0;" edge="1" parent="1" source="nQlicbacur5IE9ucQl_i-31">
          <mxGeometry width="50" height="50" relative="1" as="geometry">
            <mxPoint x="540" y="870" as="sourcePoint" />
            <mxPoint x="540" y="1000" as="targetPoint" />
            <Array as="points">
              <mxPoint x="540" y="920" />
            </Array>
          </mxGeometry>
        </mxCell>
        <mxCell id="m6Z-nKXAtuWhH_7q1srU-4" value="" style="endArrow=block;html=1;rounded=0;endSize=8;startSize=5;targetPerimeterSpacing=6;strokeWidth=3;endFill=1;fillColor=#d5e8d4;strokeColor=#82b366;exitX=0.04;exitY=-0.025;exitDx=0;exitDy=0;exitPerimeter=0;entryX=0.471;entryY=1.05;entryDx=0;entryDy=0;entryPerimeter=0;" edge="1" parent="1" source="nQlicbacur5IE9ucQl_i-55" target="nQlicbacur5IE9ucQl_i-39">
          <mxGeometry width="50" height="50" relative="1" as="geometry">
            <mxPoint x="200.03999999999996" y="1050" as="sourcePoint" />
            <mxPoint x="200" y="1108" as="targetPoint" />
            <Array as="points">
              <mxPoint x="130" y="1080" />
              <mxPoint x="280" y="1080" />
            </Array>
          </mxGeometry>
        </mxCell>
        <mxCell id="m6Z-nKXAtuWhH_7q1srU-5" value="" style="endArrow=block;html=1;rounded=0;endSize=8;startSize=5;targetPerimeterSpacing=6;strokeWidth=3;endFill=1;fillColor=#d5e8d4;strokeColor=#82b366;entryX=0.896;entryY=1.1;entryDx=0;entryDy=0;entryPerimeter=0;" edge="1" parent="1">
          <mxGeometry width="50" height="50" relative="1" as="geometry">
            <mxPoint x="642" y="1316" as="sourcePoint" />
            <mxPoint x="641.9839999999999" y="1190" as="targetPoint" />
          </mxGeometry>
        </mxCell>
        <mxCell id="m6Z-nKXAtuWhH_7q1srU-6" value="" style="endArrow=block;html=1;rounded=0;endSize=8;startSize=5;targetPerimeterSpacing=6;strokeWidth=3;endFill=1;fillColor=#d5e8d4;strokeColor=#82b366;" edge="1" parent="1">
          <mxGeometry width="50" height="50" relative="1" as="geometry">
            <mxPoint x="190" y="1280" as="sourcePoint" />
            <mxPoint x="400" y="1190" as="targetPoint" />
            <Array as="points">
              <mxPoint x="320" y="1240" />
            </Array>
          </mxGeometry>
        </mxCell>
        <mxCell id="m6Z-nKXAtuWhH_7q1srU-7" value="" style="endArrow=block;html=1;rounded=0;endSize=8;startSize=5;targetPerimeterSpacing=6;strokeWidth=3;endFill=1;fillColor=#d5e8d4;strokeColor=#82b366;" edge="1" parent="1">
          <mxGeometry width="50" height="50" relative="1" as="geometry">
            <mxPoint x="190" y="1280" as="sourcePoint" />
            <mxPoint x="520" y="1190" as="targetPoint" />
            <Array as="points">
              <mxPoint x="460" y="1240" />
            </Array>
          </mxGeometry>
        </mxCell>
        <mxCell id="m6Z-nKXAtuWhH_7q1srU-9" value="" style="endArrow=none;dashed=1;html=1;rounded=0;" edge="1" parent="1">
          <mxGeometry width="50" height="50" relative="1" as="geometry">
            <mxPoint x="312" y="1025.89" as="sourcePoint" />
            <mxPoint x="392" y="1026" as="targetPoint" />
          </mxGeometry>
        </mxCell>
        <mxCell id="m6Z-nKXAtuWhH_7q1srU-10" value="" style="endArrow=none;dashed=1;html=1;rounded=0;" edge="1" parent="1">
          <mxGeometry width="50" height="50" relative="1" as="geometry">
            <mxPoint x="410" y="1025.89" as="sourcePoint" />
            <mxPoint x="490" y="1026" as="targetPoint" />
          </mxGeometry>
        </mxCell>
        <mxCell id="m6Z-nKXAtuWhH_7q1srU-11" value="" style="endArrow=none;dashed=1;html=1;rounded=0;" edge="1" parent="1">
          <mxGeometry width="50" height="50" relative="1" as="geometry">
            <mxPoint x="431" y="858.0000000000001" as="sourcePoint" />
            <mxPoint x="501" y="858" as="targetPoint" />
          </mxGeometry>
        </mxCell>
        <mxCell id="m6Z-nKXAtuWhH_7q1srU-12" value="" style="endArrow=none;dashed=1;html=1;rounded=0;" edge="1" parent="1">
          <mxGeometry width="50" height="50" relative="1" as="geometry">
            <mxPoint x="508" y="1026" as="sourcePoint" />
            <mxPoint x="588" y="1026" as="targetPoint" />
          </mxGeometry>
        </mxCell>
        <mxCell id="m6Z-nKXAtuWhH_7q1srU-13" value="" style="endArrow=none;dashed=1;html=1;rounded=0;" edge="1" parent="1">
          <mxGeometry width="50" height="50" relative="1" as="geometry">
            <mxPoint x="335" y="1176" as="sourcePoint" />
            <mxPoint x="458" y="1176" as="targetPoint" />
          </mxGeometry>
        </mxCell>
        <mxCell id="m6Z-nKXAtuWhH_7q1srU-14" value="" style="endArrow=none;dashed=1;html=1;rounded=0;" edge="1" parent="1">
          <mxGeometry width="50" height="50" relative="1" as="geometry">
            <mxPoint x="471" y="1176" as="sourcePoint" />
            <mxPoint x="591" y="1176" as="targetPoint" />
          </mxGeometry>
        </mxCell>
        <mxCell id="m6Z-nKXAtuWhH_7q1srU-85" value="" style="endArrow=none;dashed=1;html=1;rounded=0;" edge="1" parent="1">
          <mxGeometry width="50" height="50" relative="1" as="geometry">
            <mxPoint x="627" y="1176" as="sourcePoint" />
            <mxPoint x="681" y="1176" as="targetPoint" />
          </mxGeometry>
        </mxCell>
      </root>
    </mxGraphModel>
  </diagram>
</mxfile>
